{"title":"Beat the World 2011 DVDrip English Klam","uid":6703010,"size":1683645543,"categoryP":"video","categoryS":"movies","magnet":"?xt=urn:btih:5462c9f3b0e82dab9a04e76993208201885adfbb&amp;dn=Beat+the+World+2011+DVDrip+English+Klam&amp;tr=udp%3A%2F%2Ftracker.openbittorrent.com%3A80&amp;tr=udp%3A%2F%2Fopen.demonii.com%3A1337&amp;tr=udp%3A%2F%2Ftracker.coppersurfer.tk%3A6969&amp;tr=udp%3A%2F%2Fexodus.desync.com%3A6969","seeders":0,"leechers":3,"uploader":"Klambake","files":-1,"time":1317051149,"description":"[img] [/img]\n\nWith: Tyrone Brown, Mishael Morgan en Nikki Grant\n\nDrie dansgroepen nemen het tegen elkaar in een internationale competitie. Het gaat er heel hard en dikwijls emotioneel aan toe, want iedereen is erg gedreven om te winnen. Verliezen is voor geen van de deelnemers een optie. Ze bereiden zich al zo goed als heel hun leven voor om kampioen te worden en gaan dan er ook voluit voor om hun droom werkelijkheid te maken.\n\nThree dance crews prepare to do battle at the international Beat the World competition in Detroit. In the final showdown to become world champions lifelong hopes, dreams and even lives, are at stake. \n\n------------------ Dutch Friends ------------------\nYou can find my Friends at: http://www.Film-Test.nl \n------ They got my dutch subs ----- and more ------\n\nGeneral:\n\nComplete name                    : Beat the World\\Beat the World.avi\nFormat                           : AVI\nFormat/Info                      : Audio Video Interleave\nFile size                        : 1.57 GiB\nDuration                         : 1h 31mn\nOverall bit rate                 : 2 459 Kbps\n\nVideo:\n\nFormat                           : MPEG-4 Visual\nFormat profile                   : Simple@L3\nFormat settings, BVOP            : No\nFormat settings, QPel            : No\nFormat settings, GMC             : No warppoints\nFormat settings, Matrix          : Default (H.263)\nCodec ID                         : XVID\nCodec ID/Hint                    : XviD\nDuration                         : 1h 31mn\nBit rate                         : 2 001 Kbps\nWidth                            : 720 pixels\nHeight                           : 304 pixels\nDisplay aspect ratio             : 2.35:1\nFrame rate                       : 23.976 fps\nColor space                      : YUV\nChroma subsampling               : 4:2:0\nBit depth                        : 8 bits\nScan type                        : Progressive\nBits/(Pixel*Frame)               : 0.381\nStream size                      : 1.28 GiB (81%)\nWriting library                  : XviD 1.1.2 (UTC 2006-11-01)\n\nAudio:\n\nFormat                           : AC-3\nFormat/Info                      : Audio Coding 3\nMode extension                   : CM (complete main)\nCodec ID                         : 2000\nDuration                         : 1h 31mn\nBit rate mode                    : Constant\nBit rate                         : 448 Kbps\nChannel(s)                       : 6 channels\nChannel positions                : Front: L C R, Side: L R, LFE\nSampling rate                    : 48.0 KHz\nBit depth                        : 16 bits\nStream size                      : 292 MiB (18%)\nAlignment                        : Aligned on interleaves\nInterleave, duration             : 32 ms (0.77 video frame)\nInterleave, preload duration     : 352 ms\n\n\n","torrent":{"xt":"urn:btih:5462c9f3b0e82dab9a04e76993208201885adfbb","amp;dn":"Beat+the+World+2011+DVDrip+English+Klam","amp;tr":["udp%3A%2F%2Ftracker.openbittorrent.com%3A80","udp%3A%2F%2Fopen.demonii.com%3A1337","udp%3A%2F%2Ftracker.coppersurfer.tk%3A6969","udp%3A%2F%2Fexodus.desync.com%3A6969"],"infoHash":"5462c9f3b0e82dab9a04e76993208201885adfbb","infoHashBuffer":{"type":"Buffer","data":[84,98,201,243,176,232,45,171,154,4,231,105,147,32,130,1,136,90,223,187]},"announce":[],"urlList":[]}}